<svg id="Layer_2" data-name="Layer 2" xmlns="http://www.w3.org/2000/svg" viewBox="0 0 44 40"><defs><style>.cls-1{fill:#231f20;}</style></defs><path class="cls-1" d="M33.27,31.9l-8.51-.68.2.63A30.33,30.33,0,0,1,25.88,36h9a36.79,36.79,0,0,1-1.43-3.66Z"/><path class="cls-1" d="M15.12,21.09l3.26-10.51,3.2,10.1L29,20,24.69,8.15A30.2,30.2,0,0,1,23.38,4h-10a22.4,22.4,0,0,1-1.23,4.15L3.81,31.31A38.39,38.39,0,0,1,2,36h9a21.85,21.85,0,0,1,1-4.15l.53-1.68L8.32,28.6H34.88V22.12H8.32Z"/><polygon class="cls-1" points="38.57 22.11 35.9 22.11 35.9 25.36 35.9 28.6 38.57 28.6 42.04 25.36 38.57 22.11"/></svg>