<svg id="Layer_2" data-name="Layer 2" xmlns="http://www.w3.org/2000/svg" viewBox="0 0 24 24"><defs><style>.cls-1{fill:#231f20;}</style></defs><path class="cls-1" d="M20.58,12.06a.87.87,0,0,0-.16-.23L15.6,7l-.1-.09-.13-.07-.13,0-.12,0H8.2V19.93a2,2,0,0,0,.17.8,1.73,1.73,0,0,0,.45.65,2,2,0,0,0,.65.45,2,2,0,0,0,.81.17h8.28a2,2,0,0,0,.8-.16,1.83,1.83,0,0,0,.66-.46,1.85,1.85,0,0,0,.45-.65,2,2,0,0,0,.16-.8V12.32A.6.6,0,0,0,20.58,12.06ZM15.8,9.16l2.47,2.48H15.8Zm3.46,10.77a.65.65,0,0,1-.06.26.86.86,0,0,1-.15.22.62.62,0,0,1-.22.15.76.76,0,0,1-.27.05H10.28a.76.76,0,0,1-.27-.05.54.54,0,0,1-.22-.15.66.66,0,0,1-.15-.22.65.65,0,0,1-.06-.26V8.18h4.84v4.14a.68.68,0,0,0,.2.49.67.67,0,0,0,.5.21h4.14Z"/><rect class="cls-1" x="8.2" y="2" width="1.38" height="3.99" rx="0.16"/><rect class="cls-1" x="3.37" y="6.8" width="3.99" height="1.38" rx="0.16"/></svg>