<svg id="Layer_2" data-name="Layer 2" xmlns="http://www.w3.org/2000/svg" viewBox="0 0 24 24"><defs><style>.cls-1{fill:#231f20;}</style></defs><path class="cls-1" d="M2.38,7.75a.84.84,0,0,1-.62-.25.87.87,0,0,1,0-1.24A.8.8,0,0,1,2.36,6L6,6,6,2.38a.89.89,0,0,1,.88-.88.81.81,0,0,1,.62.27.87.87,0,0,1,.24.61L7.71,6l7.78-.06a2.57,2.57,0,0,1,1.86.76,2.44,2.44,0,0,1,.58.83,2.7,2.7,0,0,1,.2,1v7.88h3.49a.82.82,0,0,1,.62.26.83.83,0,0,1,.26.6.88.88,0,0,1-.26.63.84.84,0,0,1-.62.25H18.13v3.51a.82.82,0,0,1-.25.6.89.89,0,0,1-1.26,0,.82.82,0,0,1-.25-.6V18.13H8.49a2.67,2.67,0,0,1-1-.2,2.44,2.44,0,0,1-.83-.58,2.44,2.44,0,0,1-.58-.83,2.67,2.67,0,0,1-.2-1L6,7.71Zm5.25,7.76a1,1,0,0,0,.06.34.83.83,0,0,0,.19.27,1,1,0,0,0,.29.2.88.88,0,0,0,.32.07h7.88V8.51a.93.93,0,0,0-.06-.34.66.66,0,0,0-.19-.27,1.05,1.05,0,0,0-.27-.2,1,1,0,0,0-.34-.07l-7.82.06Z"/></svg>