<svg xmlns="http://www.w3.org/2000/svg" viewBox="0 0 24 24"><defs><style>.cls-1{fill-rule:evenodd;}</style></defs><g id="Layer_3" data-name="Layer 3"><path class="cls-1" d="M12.44,2.56a1.9,1.9,0,0,1,2.68,0l6.32,6.32a1.88,1.88,0,0,1,0,2.68l-1.25,1.25a1.9,1.9,0,0,1-2.1.4l-2.21,4.87a.65.65,0,0,1-.41.35L2.8,22A.64.64,0,0,1,2,21.2L5.57,8.53a.65.65,0,0,1,.35-.41l4.87-2.21a1.9,1.9,0,0,1,.4-2.1ZM12.2,5.71l6.2,6.21a.65.65,0,0,0,.9,0l1.25-1.26a.62.62,0,0,0,0-.89L14.23,3.45a.63.63,0,0,0-.9,0L12.08,4.7a.65.65,0,0,0,0,.9Zm-.58,1.21L6.71,9.15,3.89,19.21l5-5a1.44,1.44,0,1,1,.89.89l-5,5,10.06-2.82,2.23-4.91Z"/></g></svg>