<svg id="Layer_2" data-name="Layer 2" xmlns="http://www.w3.org/2000/svg" viewBox="0 0 24 24"><defs><style>.cls-1{fill:#231f20;}</style></defs><path class="cls-1" d="M16,3a3.51,3.51,0,0,1,1.16-.77A3.62,3.62,0,0,1,18.49,2a3.52,3.52,0,0,1,1.31.26,3.51,3.51,0,0,1,1.93,1.93,3.48,3.48,0,0,1,0,2.64A3.41,3.41,0,0,1,21,8L8.6,20.35a.75.75,0,0,1-.2.15.64.64,0,0,1-.21.09L3.17,22a.91.91,0,0,1-.71-.08A.93.93,0,0,1,2,21.32a2.29,2.29,0,0,1,0-.25,1.5,1.5,0,0,1,0-.22L3.4,15.8a1.12,1.12,0,0,1,.1-.22.85.85,0,0,1,.14-.19ZM5.12,16.53l-.9,3.24,3.26-.88L19.67,6.7A2,2,0,0,0,20,6.14a1.68,1.68,0,0,0,.13-.62,1.69,1.69,0,0,0-.5-1.18A1.65,1.65,0,0,0,19.12,4a1.9,1.9,0,0,0-.63-.11,2,2,0,0,0-.63.11,1.72,1.72,0,0,0-.57.36Z"/></svg>