<svg id="Layer_2" data-name="Layer 2" xmlns="http://www.w3.org/2000/svg" viewBox="0 0 24 24"><defs><style>.cls-1{fill:#231f20;}</style></defs><path class="cls-1" d="M2.84,14.49a.85.85,0,0,1-.6-.24A.82.82,0,0,1,2,13.67a.82.82,0,0,1,.84-.84h5a.82.82,0,0,1,.58.24.85.85,0,0,1,.24.6.82.82,0,0,1-.82.82H6.16v5a.85.85,0,0,1-.24.6.82.82,0,0,1-.58.24.82.82,0,0,1-.84-.84v-5Zm3.32-4.16a.85.85,0,0,1-.24.6.82.82,0,0,1-.58.24.82.82,0,0,1-.84-.84V4.49a.82.82,0,0,1,.24-.58.85.85,0,0,1,.6-.24.82.82,0,0,1,.82.82ZM8.9,9.25a.82.82,0,0,1-.24-.58.82.82,0,0,1,.84-.84h1.66V4.49a.82.82,0,0,1,.24-.58.87.87,0,0,1,1.2,0,.82.82,0,0,1,.24.58V7.83H14.5a.82.82,0,0,1,.84.84.82.82,0,0,1-.24.58.85.85,0,0,1-.6.24h-5A.85.85,0,0,1,8.9,9.25Zm3.7,10.84a.84.84,0,0,1-1.44-.6V12a.82.82,0,0,1,.24-.58.87.87,0,0,1,1.2,0,.82.82,0,0,1,.24.58v7.5A.85.85,0,0,1,12.6,20.09Zm3-4.16a.87.87,0,0,1,0-1.2.82.82,0,0,1,.58-.24h5a.84.84,0,1,1,0,1.68H19.5v3.32a.82.82,0,0,1-.84.84.82.82,0,0,1-.58-.24.85.85,0,0,1-.24-.6V16.17H16.16A.82.82,0,0,1,15.58,15.93Zm3.68-3.34a.85.85,0,0,1-.6.24.82.82,0,0,1-.58-.24.85.85,0,0,1-.24-.6V4.49a.82.82,0,0,1,.82-.82.85.85,0,0,1,.6.24.82.82,0,0,1,.24.58V12A.85.85,0,0,1,19.26,12.59Z"/></svg>